<?xml version="1.0" standalone="no"?>
<!DOCTYPE svg PUBLIC "-//W3C//DTD SVG 20010904//EN"
 "http://www.w3.org/TR/2001/REC-SVG-20010904/DTD/svg10.dtd">
<svg version="1.0" xmlns="http://www.w3.org/2000/svg"
 width="988.000000pt" height="1228.000000pt" viewBox="0 0 988.000000 1228.000000"
 preserveAspectRatio="xMidYMid meet">
<metadata>
Created by potrace 1.16, written by Peter Selinger 2001-2019
</metadata>
<g transform="translate(0.000000,1228.000000) scale(0.100000,-0.100000)"
fill="#000000" stroke="none">
<path d="M4502 11518 c-6 -7 -22 -44 -36 -83 -15 -38 -31 -79 -36 -90 -6 -11
-19 -45 -29 -75 -26 -72 -89 -240 -100 -265 -51 -114 -65 -169 -47 -184 17
-14 122 -58 305 -127 327 -123 540 -255 866 -537 145 -126 345 -329 460 -468
56 -67 143 -178 168 -214 245 -351 398 -659 526 -1055 46 -146 79 -265 91
-335 5 -27 19 -93 30 -145 28 -130 50 -267 60 -380 5 -52 13 -124 19 -160 5
-36 12 -135 15 -220 3 -85 8 -220 12 -300 10 -255 -5 -378 -88 -705 -52 -202
-71 -335 -49 -335 29 0 111 137 155 260 25 72 68 240 77 305 5 33 12 67 15 75
24 63 71 555 85 890 12 300 3 669 -21 800 -5 30 -19 109 -30 175 -23 129 -43
221 -65 300 -8 28 -22 77 -31 110 -52 186 -155 460 -246 653 -26 57 -48 105
-48 107 0 23 -241 431 -335 568 -256 372 -562 674 -950 937 -36 25 -94 66
-128 91 -207 153 -608 419 -632 419 -2 0 -7 -6 -13 -12z"/>
<path d="M6745 11054 c-33 -24 -67 -50 -75 -57 -8 -6 -40 -30 -70 -52 -176
-127 -390 -316 -390 -343 0 -31 175 -319 315 -517 127 -180 385 -568 385 -579
0 -3 19 -38 43 -78 69 -117 150 -293 222 -478 8 -19 30 -91 50 -160 20 -69 43
-147 51 -174 8 -26 14 -56 14 -66 0 -10 6 -45 14 -77 63 -269 90 -799 58
-1173 -13 -150 -43 -387 -62 -480 -46 -237 -109 -485 -154 -615 -71 -202 -90
-251 -127 -331 -10 -23 -19 -44 -19 -49 0 -22 -165 -341 -220 -425 -5 -8 -17
-28 -26 -45 -28 -51 -151 -231 -210 -308 -57 -73 -110 -134 -289 -332 -148
-163 -258 -303 -299 -383 -24 -47 -2 -50 70 -11 244 131 503 386 785 770 46
63 96 132 110 154 107 164 150 234 232 377 192 338 382 756 477 1051 16 51 35
106 41 122 6 17 15 46 19 65 5 19 20 78 34 130 26 102 45 190 72 340 15 77 19
172 22 505 7 793 -32 1219 -149 1610 -32 105 -95 284 -125 352 -8 17 -14 34
-14 37 0 21 -319 660 -512 1026 -73 138 -155 241 -192 239 -12 0 -48 -20 -81
-45z"/>
<path d="M2523 10783 c-16 -6 -17 -91 -2 -313 8 -135 14 -174 33 -216 38 -83
34 -82 556 -87 449 -4 474 -6 680 -48 131 -27 331 -84 430 -123 570 -225 1072
-577 1477 -1038 241 -274 481 -660 607 -978 10 -25 23 -56 28 -70 6 -14 14
-38 19 -55 15 -57 61 -180 95 -253 19 -41 34 -78 34 -83 0 -5 11 -9 24 -9 21
0 25 7 35 59 12 60 5 120 -33 301 -34 162 -115 417 -177 557 -11 23 -19 45
-19 48 0 14 -121 249 -171 332 -172 284 -420 602 -654 838 -398 402 -902 741
-1350 911 -270 102 -618 179 -926 204 -63 6 -161 14 -219 20 -108 10 -445 12
-467 3z"/>
<path d="M2620 9920 c-225 -30 -351 -59 -570 -131 -194 -65 -409 -149 -602
-238 -26 -11 -50 -21 -53 -21 -3 0 -30 -11 -58 -24 -29 -13 -85 -36 -125 -50
-104 -37 -115 -44 -109 -69 26 -110 201 -447 232 -447 7 0 107 45 222 101 114
56 222 107 238 115 84 38 166 73 220 93 33 13 68 28 78 33 25 13 297 101 377
123 36 9 76 21 90 26 31 11 162 34 340 60 254 38 778 36 1025 -4 156 -25 401
-87 525 -133 36 -13 70 -24 75 -24 16 0 202 -77 295 -122 124 -60 257 -135
323 -182 195 -138 338 -252 451 -360 27 -25 53 -46 57 -46 4 0 11 -9 14 -20 4
-12 15 -20 28 -20 13 0 17 3 11 8 -6 4 -24 30 -40 57 -33 57 -329 359 -418
426 -33 24 -78 58 -100 75 -75 56 -310 210 -391 256 -44 25 -98 56 -120 68
-89 50 -341 172 -425 205 -25 9 -56 22 -70 28 -98 41 -440 151 -506 162 -22 4
-65 13 -96 21 -219 54 -645 70 -918 34z"/>
<path d="M8820 9439 c-43 -6 -241 -43 -385 -73 -38 -8 -108 -22 -155 -31 -181
-33 -231 -47 -242 -69 -12 -23 -4 -328 13 -456 69 -533 80 -657 81 -925 0
-313 -25 -550 -89 -830 -14 -60 -29 -130 -34 -155 -5 -25 -16 -65 -23 -90 -8
-25 -26 -85 -41 -135 -30 -98 -71 -224 -85 -258 -5 -12 -25 -64 -45 -116 -117
-305 -346 -730 -540 -1001 -155 -218 -320 -439 -336 -450 -4 -3 -27 -30 -51
-61 -198 -256 -608 -656 -872 -851 -28 -21 -62 -46 -76 -57 -53 -41 -126 -91
-140 -98 -8 -3 -31 -18 -50 -33 -19 -15 -53 -37 -75 -49 -22 -12 -58 -33 -80
-46 -22 -14 -49 -29 -60 -35 -11 -6 -42 -24 -70 -40 -53 -31 -124 -67 -240
-121 -281 -129 -463 -184 -755 -229 -312 -47 -325 -50 -275 -71 49 -21 262
-23 373 -4 163 29 526 123 597 155 11 5 54 20 95 34 87 29 297 111 322 126 10
5 22 10 27 10 6 0 61 23 123 51 62 28 129 58 148 66 19 9 46 22 60 29 14 6 39
19 55 27 17 8 50 25 75 38 25 12 52 26 60 30 77 39 351 211 430 269 19 15 80
60 135 101 156 116 315 257 500 443 197 197 280 291 481 541 140 174 345 471
409 591 14 26 29 52 34 58 5 6 24 38 42 71 18 33 48 87 66 120 29 52 166 328
238 480 37 78 123 289 131 321 4 16 10 34 14 39 35 47 209 673 230 827 4 31
10 61 14 66 4 6 13 50 20 99 8 48 24 147 35 218 55 343 64 433 77 745 4 111 1
201 -10 320 -21 209 -46 312 -93 386 -17 27 -21 29 -63 23z"/>
<path d="M3015 9291 c-55 -5 -125 -13 -155 -19 -30 -6 -80 -14 -110 -17 -30
-4 -71 -11 -90 -15 -19 -5 -80 -19 -135 -30 -55 -12 -122 -28 -150 -36 -27 -8
-75 -22 -105 -31 -30 -9 -71 -21 -90 -28 -19 -7 -75 -28 -125 -45 -49 -18
-110 -41 -135 -52 -25 -11 -61 -26 -80 -35 -75 -32 -290 -144 -365 -190 -479
-292 -795 -665 -895 -1057 -11 -44 -20 -89 -20 -101 0 -21 28 -55 44 -55 4 0
28 -9 54 -21 26 -11 56 -24 67 -29 33 -14 106 -46 178 -79 38 -17 71 -31 73
-31 3 0 26 -9 51 -21 71 -32 80 -25 150 119 34 70 76 150 92 177 17 28 35 59
41 70 34 66 184 281 266 380 86 105 261 282 349 353 38 31 79 65 90 75 11 10
65 48 120 84 55 36 112 74 126 84 58 39 291 149 409 192 224 82 389 119 660
152 145 17 453 20 585 4 50 -5 131 -14 180 -19 108 -12 219 -31 340 -60 154
-37 181 -37 138 -4 -25 19 -210 110 -263 129 -205 72 -306 99 -510 136 -93 16
-169 21 -400 24 -157 2 -330 0 -385 -4z"/>
<path d="M4184 8914 c-38 -9 -100 -70 -112 -112 -49 -163 51 -294 202 -262 56
11 87 36 105 82 8 21 7 27 -6 32 -21 8 -50 -1 -57 -19 -9 -23 -65 -47 -95 -40
-52 11 -75 48 -79 125 -4 69 -4 70 31 105 43 43 82 46 125 10 31 -26 76 -33
87 -15 10 16 -21 57 -56 75 -32 17 -109 27 -145 19z"/>
<path d="M3577 8903 c-4 -3 -7 -84 -7 -179 0 -150 2 -173 16 -178 9 -4 25 -4
35 -1 18 6 19 20 19 180 0 148 -2 174 -16 179 -20 8 -39 8 -47 -1z"/>
<path d="M3749 8888 c-5 -103 1 -332 9 -340 5 -5 67 -7 138 -6 118 3 129 5
132 22 7 32 -25 46 -104 46 -47 0 -76 4 -81 13 -4 6 -10 73 -13 147 l-5 135
-37 3 c-34 3 -38 1 -39 -20z"/>
<path d="M3035 8606 c-22 -13 -125 -72 -230 -131 -104 -59 -203 -116 -220
-125 -116 -67 -185 -106 -215 -122 -19 -11 -44 -25 -55 -31 -11 -7 -70 -40
-131 -75 -110 -62 -115 -67 -375 -335 -145 -150 -322 -331 -392 -404 -71 -72
-135 -141 -144 -152 -27 -39 0 -31 182 54 28 13 77 35 110 50 33 15 64 34 68
41 4 8 19 14 33 14 13 0 50 13 82 29 106 53 132 50 132 -14 0 -43 39 -153 90
-259 24 -48 27 -51 67 -54 23 -2 58 4 80 13 235 100 417 168 484 179 44 8 51
16 123 132 47 78 156 228 175 244 39 31 131 182 131 215 0 36 -84 100 -268
207 -26 14 -48 30 -49 35 -2 5 11 28 29 51 18 22 64 80 103 129 38 48 111 139
162 202 106 132 112 156 28 107z"/>
<path d="M4605 7788 c-2 -7 -13 -44 -24 -82 -25 -82 -61 -156 -101 -206 -29
-37 -30 -41 -30 -148 l0 -111 88 -41 c309 -147 558 -415 679 -730 43 -111 63
-198 79 -334 35 -298 -40 -606 -209 -862 -163 -246 -400 -431 -677 -529 -165
-58 -322 -80 -518 -72 -140 6 -190 14 -326 51 -70 20 -76 16 -76 -59 0 -132
-40 -343 -83 -447 -14 -34 -14 -38 3 -53 36 -32 272 -71 520 -85 91 -5 183
-15 205 -21 27 -8 219 -14 600 -19 659 -8 705 -13 920 -85 108 -36 125 -40
125 -26 0 26 -70 138 -150 241 -23 30 -122 132 -171 176 -60 55 -172 119 -304
174 -29 12 -181 47 -240 55 -46 7 -48 8 -25 17 42 17 218 13 282 -6 32 -10 66
-15 76 -12 47 15 239 230 335 374 256 384 364 861 297 1312 -35 238 -88 407
-193 610 -47 91 -65 120 -168 270 -57 84 -305 332 -389 389 -148 101 -179 120
-275 168 -188 95 -242 114 -250 91z"/>
<path d="M3775 7212 c-40 -2 -73 -8 -77 -15 -12 -19 -10 -2325 2 -2348 10 -18
24 -19 259 -19 218 0 250 2 255 16 3 9 6 542 6 1185 0 927 -3 1170 -12 1174
-18 5 -346 11 -433 7z"/>
<path d="M9270 7073 c-64 -73 -134 -201 -263 -488 -25 -55 -57 -127 -72 -160
-102 -224 -272 -553 -371 -715 -36 -58 -70 -114 -77 -125 -127 -210 -366 -529
-530 -705 -369 -396 -589 -621 -707 -724 -186 -162 -603 -463 -791 -570 -19
-11 -83 -48 -144 -83 -142 -81 -307 -162 -475 -233 -30 -12 -68 -29 -85 -36
-40 -18 -385 -128 -460 -148 -118 -30 -331 -74 -420 -87 -427 -63 -805 -83
-1424 -77 -389 4 -471 3 -471 -8 0 -28 113 -79 210 -95 51 -8 149 -29 310 -65
96 -22 238 -46 445 -74 126 -17 522 -24 695 -11 177 13 417 38 429 45 4 3 41
10 82 15 165 23 458 90 619 140 14 5 52 16 85 26 103 30 323 106 382 131 17 8
36 14 41 14 6 0 23 6 39 14 15 8 84 38 153 66 201 83 450 202 629 302 58 32
106 58 107 58 5 0 302 178 331 198 15 11 69 46 118 79 242 159 564 403 719
544 186 169 504 511 646 694 63 81 227 272 282 328 l38 39 0 874 c0 851 0 874
-19 874 -10 0 -33 -17 -51 -37z"/>
<path d="M4442 6628 c-19 -19 -15 -32 22 -67 19 -18 37 -46 40 -63 7 -37 39
-35 44 2 7 46 18 50 128 50 80 0 106 3 118 16 22 21 20 51 -3 64 -29 15 -334
13 -349 -2z"/>
<path d="M4478 6360 c-32 -24 -58 -79 -58 -119 0 -56 65 -131 113 -131 13 0
17 8 17 33 0 26 -6 36 -25 45 -28 13 -43 57 -28 81 6 9 27 17 51 19 40 3 42 2
92 -67 67 -92 147 -139 164 -95 3 9 6 64 6 124 0 115 -9 138 -49 125 -16 -5
-21 -16 -23 -63 -4 -70 -22 -75 -67 -18 -67 84 -139 109 -193 66z"/>
<path d="M4503 6040 c-93 -42 -111 -155 -35 -223 27 -25 130 -41 207 -32 55 6
71 12 100 39 32 31 35 38 35 92 0 73 -16 99 -77 125 -61 26 -173 26 -230 -1z
m207 -78 c45 -22 53 -63 17 -79 -42 -19 -129 -24 -182 -11 -40 10 -51 18 -53
36 -2 13 2 30 8 38 30 35 154 45 210 16z"/>
<path d="M4474 5702 c-52 -43 -69 -125 -37 -179 20 -36 77 -75 98 -67 17 7 22
74 5 74 -6 0 -22 11 -35 25 -22 21 -24 27 -13 50 26 57 89 40 145 -38 38 -56
115 -117 145 -117 24 0 28 21 28 138 0 121 -6 138 -44 128 -24 -6 -26 -10 -26
-62 0 -68 -21 -83 -53 -38 -12 16 -38 46 -59 67 -34 32 -45 37 -86 37 -30 -1
-55 -7 -68 -18z"/>
<path d="M3236 2544 c-3 -9 -6 -74 -6 -145 0 -72 -5 -139 -10 -150 -10 -18
-12 -18 -43 -2 -21 12 -54 17 -98 17 -107 0 -184 -57 -237 -174 -20 -46 -25
-71 -25 -150 -1 -122 20 -185 84 -251 62 -64 135 -88 211 -70 29 6 62 21 74
32 l22 20 20 -21 c17 -18 29 -21 83 -18 l64 3 3 440 c1 242 0 450 -3 463 -5
20 -11 22 -69 22 -49 0 -65 -4 -70 -16z m-50 -425 c42 -26 48 -55 42 -201 -5
-110 -5 -111 -36 -139 -42 -38 -77 -45 -126 -28 -115 40 -144 248 -48 344 49
50 112 59 168 24z"/>
<path d="M5900 2500 c-69 -12 -108 -26 -160 -60 -133 -85 -200 -213 -200 -383
0 -133 43 -239 131 -325 129 -127 359 -159 526 -73 51 26 57 42 32 86 -27 45
-46 50 -103 24 -40 -17 -63 -20 -144 -17 -88 3 -101 6 -141 33 -144 98 -184
318 -84 467 36 55 108 103 174 117 57 13 158 -5 213 -38 40 -23 56 -18 84 25
28 46 28 48 -10 78 -73 55 -215 85 -318 66z"/>
<path d="M1029 2483 c-14 -3 -17 -50 -22 -404 -4 -243 -3 -409 3 -424 l10 -25
237 2 238 3 3 45 c4 74 3 74 -175 80 l-158 5 0 353 c0 301 -3 354 -15 362 -15
10 -91 12 -121 3z"/>
<path d="M3576 2477 c-13 -10 -17 -24 -14 -67 l3 -55 62 -3 c52 -2 63 0 72 16
14 27 11 84 -7 105 -18 20 -90 23 -116 4z"/>
<path d="M7748 2473 c-22 -6 -27 -27 -30 -128 l-3 -80 -38 -9 c-41 -11 -54
-36 -43 -81 5 -18 15 -27 36 -32 17 -3 33 -10 37 -16 3 -5 6 -100 7 -211 1
-191 2 -203 24 -237 40 -66 137 -87 220 -49 49 22 59 41 43 77 -11 24 -15 25
-61 19 -45 -6 -50 -5 -66 20 -15 23 -17 49 -15 197 1 104 6 176 13 184 6 7 31
13 58 13 57 0 72 15 68 67 -3 37 -4 38 -43 41 -89 6 -85 0 -85 112 0 88 -2
100 -19 110 -20 10 -71 12 -103 3z"/>
<path d="M1771 2259 c-79 -23 -136 -77 -179 -169 -22 -47 -25 -69 -25 -155 0
-87 3 -108 26 -158 62 -136 203 -199 338 -152 56 20 136 74 142 96 10 37 -79
90 -98 59 -13 -21 -86 -50 -126 -50 -36 0 -48 6 -80 40 -43 45 -67 113 -49
136 9 10 53 14 194 16 l181 3 -2 81 c-1 96 -30 164 -89 212 -57 47 -152 64
-233 41z m126 -106 c41 -19 79 -88 61 -110 -16 -20 -227 -18 -234 2 -9 23 39
89 77 108 43 21 53 21 96 0z"/>
<path d="M2419 2260 c-34 -9 -128 -59 -174 -93 -18 -14 -18 -17 -5 -42 25 -47
50 -51 106 -17 87 54 142 54 169 2 23 -44 19 -67 -15 -85 -16 -8 -36 -15 -44
-15 -27 0 -139 -42 -177 -66 -56 -35 -82 -79 -87 -146 -4 -46 0 -65 18 -95 58
-99 184 -122 279 -51 32 24 49 23 77 -7 30 -32 68 -41 123 -26 60 15 84 43 69
77 -8 17 -19 24 -39 24 -56 0 -59 12 -59 232 0 225 -6 252 -66 289 -38 23
-121 33 -175 19z m106 -360 c12 -37 -6 -114 -33 -142 -47 -51 -132 -47 -152 8
-22 57 14 110 96 139 56 20 82 19 89 -5z"/>
<path d="M4161 2259 c-19 -6 -50 -21 -70 -35 -44 -30 -49 -30 -61 1 -9 23 -14
25 -74 25 l-65 0 -6 -42 c-3 -24 -5 -162 -3 -308 l3 -265 70 0 70 0 3 211 2
212 35 26 c73 56 126 65 168 28 15 -14 17 -38 17 -237 0 -180 3 -225 14 -234
9 -7 38 -11 73 -9 l58 3 8 90 c4 50 6 167 5 260 -3 185 -11 214 -69 257 -31
23 -128 32 -178 17z"/>
<path d="M4744 2259 c-49 -11 -115 -65 -138 -113 -31 -65 -16 -168 28 -205 23
-20 20 -50 -7 -60 -13 -5 -40 -25 -60 -44 -29 -27 -37 -42 -37 -70 0 -39 20
-60 73 -72 15 -4 27 -13 27 -21 0 -13 -38 -54 -49 -54 -16 0 -51 -71 -52 -106
-2 -78 39 -131 129 -164 112 -42 239 -34 347 21 138 71 188 225 102 318 -36
39 -98 59 -239 76 -173 21 -178 22 -178 50 0 41 25 50 124 47 74 -3 100 0 139
17 90 39 130 106 125 211 l-3 65 45 5 c40 4 45 8 48 33 6 50 -11 58 -112 57
-50 -1 -115 3 -145 9 -62 13 -109 13 -167 0z m174 -124 c28 -33 30 -109 4
-141 -36 -46 -98 -57 -142 -27 -57 39 -70 87 -40 149 17 34 28 44 58 51 48 12
91 0 120 -32z m-46 -496 c110 -14 144 -39 135 -96 -12 -71 -91 -123 -187 -123
-93 0 -170 49 -170 107 0 38 83 120 124 122 5 1 49 -4 98 -10z"/>
<path d="M6528 2259 c-44 -13 -120 -77 -152 -128 -12 -20 -30 -71 -40 -113
-17 -72 -17 -81 -2 -158 25 -121 75 -189 169 -229 89 -38 197 -21 290 46 51
37 58 59 28 85 -43 37 -58 39 -88 15 -63 -51 -126 -60 -181 -27 -38 23 -75 96
-70 138 l3 27 179 3 c112 1 185 7 193 13 17 15 16 58 -3 132 -26 102 -58 148
-125 183 -38 19 -152 27 -201 13z m155 -116 c26 -23 48 -77 41 -98 -5 -13 -24
-15 -118 -13 l-111 3 2 29 c2 30 44 82 78 97 28 12 84 3 108 -18z"/>
<path d="M7265 2261 c-16 -4 -49 -20 -72 -34 -24 -15 -45 -27 -48 -27 -3 0
-10 11 -15 25 -9 25 -13 26 -77 23 l-68 -3 0 -305 0 -305 70 0 70 0 3 212 2
212 38 31 c42 34 87 50 125 43 54 -11 56 -20 59 -269 l3 -229 70 0 70 0 3 260
c2 238 1 263 -16 295 -29 52 -61 71 -128 75 -32 2 -72 1 -89 -4z"/>
<path d="M8247 2256 c-41 -15 -55 -25 -105 -70 -43 -40 -65 -83 -87 -173 -16
-69 -16 -77 0 -150 27 -122 75 -190 163 -229 91 -41 204 -25 295 41 54 40 59
64 21 94 -33 26 -54 26 -85 3 -92 -68 -189 -50 -230 44 -11 24 -19 57 -17 72
l3 27 179 3 c121 2 184 6 194 14 11 9 13 26 8 69 -14 140 -81 238 -177 258
-65 14 -115 13 -162 -3z m156 -114 c26 -22 48 -77 41 -97 -5 -13 -24 -15 -118
-13 l-111 3 2 29 c6 80 127 131 186 78z"/>
<path d="M8973 2255 c-17 -7 -41 -27 -54 -44 -29 -39 -36 -39 -47 2 -8 32 -9
32 -75 35 -62 3 -67 1 -72 -20 -3 -13 -4 -151 -3 -308 l3 -285 70 0 70 0 5
195 c4 172 7 199 25 228 21 35 80 72 114 72 24 0 38 23 47 80 10 60 -17 74
-83 45z"/>
<path d="M3564 2236 c-3 -7 -6 -146 -7 -307 l-2 -294 65 0 65 0 6 50 c9 68 13
541 4 554 -10 17 -125 14 -131 -3z"/>
<path d="M8878 1153 c-41 -46 -68 -85 -68 -99 0 -24 44 -316 61 -404 14 -73
29 -112 43 -107 21 7 47 66 61 142 28 144 10 548 -23 544 -4 0 -37 -35 -74
-76z"/>
<path d="M1439 1159 l-175 -59 -12 -77 -12 -76 81 -84 c101 -103 99 -108 -44
-108 l-102 0 -54 45 c-30 25 -56 40 -58 34 -2 -6 -18 -42 -37 -80 l-33 -69 53
-57 c30 -31 54 -61 54 -67 0 -20 -74 -84 -164 -142 -132 -85 -130 -83 -123
-103 6 -15 22 -16 144 -14 l138 3 37 73 c28 54 38 86 38 121 l0 47 66 -4 c179
-12 274 65 274 219 0 63 -22 130 -59 181 l-32 43 100 33 100 33 6 67 c4 37 9
75 11 85 3 10 0 17 -8 16 -7 0 -92 -27 -189 -60z"/>
<path d="M4240 1160 l-175 -59 -14 -78 -13 -79 76 -74 c42 -40 76 -81 76 -91
0 -20 -28 -29 -93 -29 -55 0 -90 16 -131 59 -17 17 -33 31 -38 31 -10 0 -78
-134 -78 -154 0 -7 10 -20 23 -29 12 -8 35 -33 51 -56 27 -39 28 -42 12 -66
-21 -32 -131 -114 -209 -156 -47 -25 -58 -35 -55 -52 3 -20 10 -22 78 -25 l75
-3 -3 -59 c-3 -49 0 -62 17 -79 23 -23 97 -29 132 -11 48 26 66 136 29 183
-20 25 -20 25 0 70 11 25 23 65 26 90 l6 44 68 6 c139 12 210 85 210 216 0 65
-15 112 -56 172 -19 28 -33 53 -32 54 2 1 46 17 99 34 l96 32 7 61 c8 80 8
108 -1 107 -5 0 -87 -27 -183 -59z"/>
<path d="M7669 1159 l-177 -60 -12 -78 -12 -77 76 -74 c111 -107 104 -120 -65
-120 -107 0 -120 7 -136 70 -6 24 -16 36 -31 38 -17 3 -23 -5 -33 -38 -17 -58
-40 -70 -125 -70 l-72 0 -12 38 c-27 83 -67 122 -126 122 -39 0 -89 -56 -108
-120 -18 -61 -21 -172 -5 -202 14 -27 69 -48 124 -48 25 0 45 -5 45 -10 0 -15
-124 -104 -202 -145 -76 -40 -85 -50 -68 -70 10 -12 41 -15 140 -15 l127 0 26
38 c28 40 57 129 57 173 l0 27 90 4 c82 4 93 7 119 32 l29 27 25 -25 c13 -13
42 -28 62 -32 61 -11 181 2 230 26 113 55 137 231 49 361 -19 28 -34 53 -34
55 0 2 45 17 100 34 99 31 100 31 100 63 0 18 3 56 6 85 4 28 3 52 -2 51 -5 0
-88 -27 -185 -60z"/>
<path d="M5239 988 c-27 -55 -37 -84 -29 -86 27 -9 161 -105 170 -122 15 -27
-14 -40 -89 -40 -81 0 -107 11 -122 54 -14 39 -44 49 -53 19 -46 -147 -11
-240 101 -263 63 -14 124 -6 174 22 107 60 119 259 23 391 -32 43 -106 107
-125 107 -5 0 -27 -37 -50 -82z"/>
<path d="M6225 990 c-21 -44 -37 -81 -34 -83 2 -2 31 -21 64 -42 102 -63 136
-105 99 -119 -26 -10 -144 -7 -166 5 -11 6 -26 26 -34 45 -19 46 -45 42 -60
-11 -28 -93 -9 -180 47 -214 66 -40 187 -35 252 11 72 51 93 204 43 315 -28
61 -92 135 -138 159 -15 8 -29 14 -31 14 -1 0 -20 -36 -42 -80z"/>
<path d="M4775 964 c-38 -39 -85 -185 -85 -267 0 -103 50 -151 156 -152 78 0
131 32 164 100 28 57 31 155 8 200 -50 93 -196 165 -243 119z"/>
<path d="M3440 953 c-77 -28 -180 -235 -155 -312 12 -37 52 -54 158 -65 57 -7
102 -16 104 -23 5 -15 -44 -30 -142 -44 -128 -17 -239 4 -281 54 -22 27 -25
39 -24 96 3 100 3 101 -25 101 -29 0 -46 -29 -65 -110 -59 -246 66 -374 333
-340 186 23 277 115 277 279 0 95 -20 113 -149 130 -40 5 -78 14 -84 20 -16
16 19 49 62 60 33 9 53 7 144 -15 26 -6 27 -5 27 30 0 75 -64 147 -128 145
-20 0 -44 -3 -52 -6z"/>
<path d="M8544 941 c-81 -49 -162 -232 -135 -304 14 -37 40 -47 154 -60 59 -7
102 -17 104 -24 8 -23 -105 -47 -217 -47 -86 0 -114 4 -152 21 -67 31 -82 59
-75 139 7 76 2 94 -27 94 -67 0 -102 -265 -47 -354 43 -69 113 -97 249 -97
146 0 241 36 298 112 32 44 44 90 44 170 0 95 -11 106 -129 124 -107 16 -123
25 -96 55 37 41 101 46 203 15 20 -7 22 -4 22 29 0 46 -20 86 -60 120 -38 32
-91 34 -136 7z"/>
<path d="M2515 923 c-50 -13 -95 -76 -95 -133 0 -34 -32 -40 -210 -40 -186 0
-202 4 -254 59 -17 17 -33 31 -38 31 -9 0 -78 -134 -78 -153 0 -7 14 -23 30
-35 26 -19 30 -29 30 -67 0 -35 4 -45 17 -45 14 0 12 -4 -7 -25 -29 -31 -150
-115 -208 -144 -34 -17 -43 -27 -40 -44 3 -21 8 -22 135 -25 l132 -3 26 39
c30 45 65 141 65 177 l0 25 186 0 186 0 34 34 c33 33 34 33 51 14 67 -74 181
-57 225 32 23 45 23 93 -2 172 -32 103 -100 152 -185 131z"/>
<path d="M5741 761 l-40 -78 45 -44 c58 -57 68 -74 54 -99 -13 -25 -136 -117
-212 -160 -65 -36 -71 -42 -62 -64 5 -14 27 -16 140 -16 l133 0 26 34 c44 57
65 135 65 236 0 50 -5 110 -11 133 -11 43 -72 137 -89 137 -5 0 -28 -35 -49
-79z"/>
<path d="M7165 430 l-29 -30 32 -32 32 -32 28 27 28 27 27 -27 27 -28 32 33
33 32 -32 32 -33 32 -30 -29 -30 -29 -28 27 -28 27 -29 -30z"/>
<path d="M3255 200 l-29 -30 29 -30 29 -30 -27 -28 -27 -28 28 -27 c34 -33 43
-33 70 -4 28 29 28 35 -3 67 l-25 26 25 24 c31 29 31 41 2 68 -30 29 -38 28
-72 -8z"/>
</g>
</svg>
